<?xml version="1.0" standalone="no"?><!DOCTYPE svg PUBLIC "-//W3C//DTD SVG 1.1//EN" "http://www.w3.org/Graphics/SVG/1.1/DTD/svg11.dtd"><svg t="1533204476171" class="icon" style="" viewBox="0 0 1024 1024" version="1.1" xmlns="http://www.w3.org/2000/svg" p-id="21371" xmlns:xlink="http://www.w3.org/1999/xlink" width="48" height="48"><defs><style type="text/css"></style></defs><path d="M506.6 852.1c-45.7 0-90.1-9-131.9-26.6-40.4-17.1-76.6-41.5-107.7-72.6-31.1-31.1-55.5-67.4-72.6-107.7-17.7-41.8-26.6-86.2-26.6-131.9s9-90.1 26.6-131.9c17.1-40.4 41.5-76.6 72.6-107.7S334.3 218 374.7 201c41.8-17.7 86.2-26.6 131.9-26.6s90.1 9 131.9 26.6c40.4 17.1 76.6 41.5 107.7 72.6 31.1 31.1 55.5 67.4 72.6 107.7 17.7 41.8 26.6 86.2 26.6 131.9s-9 90.1-26.6 131.9c-17.1 40.4-41.5 76.6-72.6 107.7-31.1 31.1-67.4 55.5-107.7 72.6-41.8 17.8-86.2 26.7-131.9 26.7z m0-627.8c-159.3 0-288.9 129.6-288.9 288.9 0 159.3 129.6 288.9 288.9 288.9s288.9-129.6 288.9-288.9c0-159.3-129.6-288.9-288.9-288.9z" fill="#bfbfbf" p-id="21372"></path><path d="M324.3 621.4l122-210.7h243.4L563.1 618.1l-238.8 3.3z m150.8-160.7l-63.4 109.5 123.1-1.7 65.8-107.7-125.5-0.1z" fill="#bfbfbf" p-id="21373"></path></svg>