<?xml version="1.0" standalone="no"?><!DOCTYPE svg PUBLIC "-//W3C//DTD SVG 1.1//EN" "http://www.w3.org/Graphics/SVG/1.1/DTD/svg11.dtd"><svg t="1533192609357" class="icon" style="" viewBox="0 0 1024 1024" version="1.1" xmlns="http://www.w3.org/2000/svg" p-id="32182" xmlns:xlink="http://www.w3.org/1999/xlink" width="48" height="48"><defs><style type="text/css"></style></defs><path d="M88.529289 917.9118c-8.5487-8.5487-8.5487-17.08819 0-25.63689L840.404542 140.40068c8.53949-8.53949 17.08819-8.53949 25.62768 0 8.5487 8.5487 8.5487 17.08819 0 25.63689L114.155946 917.9118c-5.695722 2.888793-9.960863 4.26514-12.81384 4.26514C98.499361 922.177963 94.225011 920.801617 88.529289 917.9118zM703.700043 208.752418c8.53949 8.5487 8.53949 17.08819 0 25.63689-9.970072 7.163143-18.509563 7.163143-25.63689 0-39.872103-42.72508-89.705068-64.087621-149.518339-64.087621-71.195505 0-129.942491 31.332612-176.221514 93.988628-46.279023 62.702064-72.982198 146.000212-80.099293 249.913886l-12.81384 153.792689c0 9.960863-5.695722 14.94641-17.08819 14.94641s-17.08819-6.40692-17.08819-19.22076l12.81384-153.792689c7.117095-103.904465 33.82027-189.345416 80.099293-256.320806 46.279023-66.930365 105.026008-105.381096 176.221514-115.341958l0-53.40635c0-11.392468 5.696746-17.08819 17.08819-17.08819l34.17638 0c11.392468 0 17.08819 5.695722 17.08819 17.08819l0 53.40635C616.83772 146.8076 663.826917 170.301687 703.700043 208.752418zM921.571143 853.825203 270.090415 853.825203c-11.392468 0-17.08819-5.650697-17.08819-17.08819 0-11.392468 5.695722-17.08819 17.08819-17.08819l568.171324 0c-24.206308-21.35333-36.308951-49.832965-36.308951-85.439928l-17.08819-220.00367c-4.27435-59.813271-15.666818-115.351168-34.17638-166.615739-5.696746-11.392468-2.843768-18.464537 8.5487-21.35333 9.960863-5.650697 17.799388-2.852978 23.49511 8.53949 19.931958 52.685943 32.034601 111.076818 36.308951 175.155229l17.08819 222.145449c0 24.251334 8.184403 44.857651 24.561395 61.945841 16.376992 17.08819 36.673248 25.62768 60.879556 25.62768 11.392468 0 17.08819 5.695722 17.08819 17.08819C938.65831 848.174506 932.962587 853.825203 921.571143 853.825203zM528.544815 956.35332c-35.597753 0-67.641563-12.81384-96.121198-38.441521-7.118118-7.127328-7.118118-15.666818 0-25.63689 7.118118-8.53949 14.95562-8.53949 23.49511 0 19.940145 19.976984 44.146453 29.90203 72.627111 29.90203 28.480658 0 52.685943-9.925047 72.626088-29.90203 8.53949-8.53949 16.376992-8.53949 23.49511 0 7.118118 9.970072 7.118118 18.509563 0 25.63689C599.029122 943.53948 566.994522 956.35332 528.544815 956.35332z" p-id="32183" fill="#757575"></path></svg>