<?xml version="1.0" standalone="no"?><!DOCTYPE svg PUBLIC "-//W3C//DTD SVG 1.1//EN" "http://www.w3.org/Graphics/SVG/1.1/DTD/svg11.dtd"><svg t="1533203575219" class="icon" style="" viewBox="0 0 1024 1024" version="1.1" xmlns="http://www.w3.org/2000/svg" p-id="16027" xmlns:xlink="http://www.w3.org/1999/xlink" width="48" height="48"><defs><style type="text/css"></style></defs><path d="M919.246848 520.024064c-16.1536-138.893312-94.062592-232.737792-223.494144-284.612608-10.149888-4.06528-20.296704-9.959424-28.259328-17.355776-64.475136-59.887616-140.627968-90.19392-238.61248-92.434432-11.959296 1.40288-34.266112 2.640896-56.009728 6.797312C202.955776 164.911104 85.277696 323.026944 104.44288 496.342016c13.797376 124.787712 80.953344 213.799936 193.052672 268.862464 14.850048 7.293952 27.025408 16.272384 38.69696 27.76576 98.509824 96.997376 215.684096 128.72192 347.481088 88.215552C841.009152 832.833536 938.212352 683.114496 919.246848 520.024064zM264.00256 685.164544C211.8656 652.26752 150.593536 567.261184 151.896064 462.107648c1.399808-113.343488 53.502976-198.931456 152.86272-253.490176 94.365696-51.818496 207.531008-37.853184 272.55296 5.850112C340.87424 214.0672 171.568128 468.267008 264.00256 685.164544zM746.48064 695.507968c-9.109504 34.159616-33.477632 52.800512-67.099648 58.696704-24.17152 4.240384-48.837632 5.66272-75.005952 8.530944 0 14.4128 0 28.862464 0 44.096512-15.63136 0-30.37184 0-46.752768 0 0-14.678016 0-29.371392 0-44.722176-21.53472-1.833984-41.665536-2.56512-61.453312-5.574656-13.806592-2.103296-27.778048-5.8624-40.556544-11.444224-31.693824-13.83424-41.362432-42.44992-45.087744-73.67168-1.462272-12.280832-0.237568-24.881152-0.237568-38.075392 22.41536 0 44.894208 0 68.781056 0 0.446464 7.97184 0.77824 15.890432 1.352704 23.793664 2.059264 28.315648 12.131328 38.8096 40.352768 41.575424 11.534336 1.128448 23.13728 1.568768 35.53792 2.377728 0-38.171648 0-74.797056 0-112.475136-16.956416-1.352704-33.722368-2.353152-50.397184-4.159488-9.187328-0.99328-18.258944-3.193856-27.328512-5.112832-37.740544-7.984128-58.084352-32.644096-62.068736-69.653504-2.487296-23.087104-3.340288-47.049728-0.037888-69.915648 6.381568-44.187648 28.152832-64.109568 73.371648-71.225344 18.691072-2.940928 37.71904-4.078592 56.646656-5.018624 8.465408-0.421888 11.359232-3.224576 10.827776-11.531264-0.59392-9.243648-0.137216-18.552832-0.137216-28.803072 15.724544 0 30.784512 0 47.137792 0 0 12.883968 0 25.618432 0 38.771712 18.040832 1.471488 34.875392 2.659328 51.662848 4.312064 6.800384 0.668672 13.559808 2.106368 20.240384 3.62496 38.612992 8.783872 59.45344 26.018816 64.106496 80.475136 0.746496 8.75008 1.102848 17.53088 1.696768 27.255808-23.1936 0-45.171712 0-67.0464 0-10.221568-44.606464-27.587584-57.531392-69.84704-51.702784 0 33.666048 0 67.443712 0 102.365184 10.621952 0.968704 21.472256 1.165312 32.009216 3.081216 22.556672 4.10624 45.275136 7.944192 67.328 14.050304 23.384064 6.474752 36.846592 24.052736 42.797056 47.034368C756.168704 626.804736 755.580928 661.392384 746.48064 695.507968z" p-id="16028" fill="#ffffff"></path><path d="M665.764864 600.045568c-19.390464-9.531392-40.105984-9.112576-61.052928-8.940544 0 37.030912 0 72.500224 0 110.934016 13.712384-1.728512 26.318848-1.984512 38.194176-5.065728 36.118528-9.368576 53.040128-59.38176 30.815232-89.647104C671.62112 604.4672 668.874752 601.573376 665.764864 600.045568z" p-id="16029" fill="#ffffff"></path><path d="M493.477888 505.879552c16.272384 20.415488 39.318528 20.450304 62.903296 20.296704 0-34.39104 0-67.393536 0-101.455872-24.571904 0.728064-49.009664-0.499712-64.775168 22.524928C481.180672 462.477312 482.04288 491.53024 493.477888 505.879552z" p-id="16030" fill="#ffffff"></path></svg>