<?xml version="1.0" standalone="no"?><!DOCTYPE svg PUBLIC "-//W3C//DTD SVG 1.1//EN" "http://www.w3.org/Graphics/SVG/1.1/DTD/svg11.dtd"><svg t="1533257244808" class="icon" style="" viewBox="0 0 1024 1024" version="1.1" xmlns="http://www.w3.org/2000/svg" p-id="2424" xmlns:xlink="http://www.w3.org/1999/xlink" width="32" height="32"><defs><style type="text/css"></style></defs><path d="M869.2 856.9L734.6 722.3c0.6-0.6 1.3-1.2 1.9-1.9 31.6-31.6 56.4-68.4 73.8-109.4 18-42.4 27.1-87.5 27.1-134s-9.1-91.5-27.1-134c-17.3-41-42.2-77.8-73.8-109.4-31.6-31.6-68.4-56.4-109.4-73.8-42.4-18-87.5-27.1-134-27.1s-91.5 9.1-134 27.1c-41 17.3-77.8 42.2-109.4 73.8S193.3 302 175.9 343c-18 42.4-27.1 87.5-27.1 134s9.1 91.5 27.1 134c17.3 41 42.2 77.8 73.8 109.4s68.4 56.4 109.4 73.8c42.4 18 87.5 27.1 134 27.1s91.5-9.1 134-27.1c27.8-11.8 53.7-27 77.4-45.4l136.4 136.4c3.9 3.9 9 5.9 14.1 5.9s10.2-2 14.1-5.9c7.9-7.8 7.9-20.4 0.1-28.3z m-376.1-75.6c-167.7 0-304.2-136.5-304.2-304.2s136.5-304.2 304.2-304.2 304.2 136.5 304.2 304.2-136.4 304.2-304.2 304.2z" p-id="2425" fill="#ffffff"></path></svg>