<?xml version="1.0" standalone="no"?><!DOCTYPE svg PUBLIC "-//W3C//DTD SVG 1.1//EN" "http://www.w3.org/Graphics/SVG/1.1/DTD/svg11.dtd"><svg t="1533187552817" class="icon" style="" viewBox="0 0 1024 1024" version="1.1" xmlns="http://www.w3.org/2000/svg" p-id="17546" xmlns:xlink="http://www.w3.org/1999/xlink" width="48" height="48"><defs><style type="text/css"></style></defs><path d="M648.384 534.72c100.48 0 181.856-81.6 181.856-181.856 0-100.48-81.376-181.856-181.856-181.856s-181.856 81.376-181.856 181.856c0 100.256 81.376 181.856 181.856 181.856zM239.232 443.808l0-136.384-90.912 0 0 136.384-136.384 0 0 90.912 136.384 0 0 136.384 90.912 0 0-136.384 136.384 0 0-90.912-136.384 0zM648.384 625.664c-121.152 0-363.712 60.704-363.712 181.856l0 90.912 727.424 0 0-90.912c0-121.152-242.56-181.856-363.712-181.856z" p-id="17547" fill="#ffffff"></path></svg>