<?xml version="1.0" standalone="no"?><!DOCTYPE svg PUBLIC "-//W3C//DTD SVG 1.1//EN" "http://www.w3.org/Graphics/SVG/1.1/DTD/svg11.dtd"><svg t="1533027224371" class="icon" style="" viewBox="0 0 1024 1024" version="1.1" xmlns="http://www.w3.org/2000/svg" p-id="1395" xmlns:xlink="http://www.w3.org/1999/xlink" width="200" height="200"><defs><style type="text/css"></style></defs><path d="M416.3 429.2m-18 0a18 18 0 1 0 36 0 18 18 0 1 0-36 0Z" fill="" p-id="1396"></path><path d="M608.4 429.2m-18 0a18 18 0 1 0 36 0 18 18 0 1 0-36 0Z" fill="" p-id="1397"></path><path d="M889.5 79.6c-3.5-5.3-8.2-6.1-10.6-6.1-9.5 0-13.9 10-15.6 13.8-2.7 6.2-5.3 14.6-8.2 24.4-11.7 38.6-29.4 96.8-84.4 121-25.5 11.2-53.7 11.5-81 11.9-36.2 0.4-70.4 0.8-90.2 28.3 0 0.1-0.1 0.1-0.1 0.2-27.2-9.7-56.4-15-86.9-15-31.1 0-61 5.5-88.6 15.6-0.2-0.3-0.3-0.6-0.5-0.8-19.8-27.5-54-27.9-90.2-28.3-27.3-0.3-55.5-0.6-81-11.9-55-24.2-72.7-82.4-84.4-121-3-9.8-5.5-18.2-8.2-24.4-1.7-3.8-6.1-13.8-15.6-13.8-2.4 0-7.1 0.8-10.6 6.1-8.1 12.2-6.1 45.9-4.2 64.9 3 30.2 9.4 59.6 16.6 76.8 32.2 76.8 93.1 97.4 138.6 106.8-18.4 2.1-37.9 9.3-57.1 21.2-18.9 11.7-33.7 26.7-44 44.5-10.1 17.4-13.7 33.6-14.9 44.1-1.1 9.8-1.7 27.4 6.8 35.9 3.5 3.5 8.3 5.3 14.2 5.3 10.4 0 27.9-5.1 43.7-12.8 9.1-4.4 20.4-11 31.2-20.1-6.2 22.2-9.6 45.6-9.6 69.8 0 142.5 115.5 258 258 258s258-115.5 258-258c0-24.2-3.3-47.7-9.6-69.9 10.6 8.7 21.4 15 30.2 19.2 15.8 7.6 33.3 12.8 43.7 12.8 5.9 0 10.7-1.8 14.2-5.3 8.5-8.5 7.9-26.1 6.8-35.9-1.2-10.5-4.8-26.8-14.9-44.1-10.4-17.8-25.2-32.7-44-44.5-18.3-11.4-37-18.5-54.7-20.9 45-9.7 103.8-31.1 135.2-106.1 7.2-17.2 13.5-46.6 16.6-76.8 1.4-19 3.3-52.7-4.7-64.9zM160.3 215.2c-6.6-15.8-12.7-44.6-15.5-73.2-2.4-24.6-1.6-40.4-0.1-48.2 2.4 5.6 5.2 14.8 7.6 22.6 11.8 38.9 31.5 103.9 93.3 131 28.5 12.5 59.7 12.9 87.3 13.2 32.1 0.4 60 0.7 75.5 19.3-25.4 11.2-48.6 26.4-69 44.7-0.9-0.9-2-1.7-3.3-2.1-7.6-2.5-17.3-4.2-28.5-6.2-45.1-8-113.2-19.9-147.3-101.1zM295 330.2v13.3V330.2zM189 463.1c-1.5 0-2.5-0.2-2.9-0.6-5.5-5.5-8.2-63.8 49.3-99.6 22.3-13.9 42.8-19.4 59.5-19.4 7.1 0 13.6 1 19.2 2.8-24.9 31.3-28.2 39-42.2 67.8-24.8 35.6-70.7 49-82.9 49z m137.7-126.8c0.2 0 0.3 0.1 0.5 0.1l-0.2 0.2-0.3-0.3zM735.4 610.2c-12.2 28.8-29.6 54.7-51.9 76.9-22.2 22.2-48.1 39.7-76.9 51.9-29.8 12.6-61.5 19-94.2 19s-64.4-6.4-94.2-19c-28.8-12.2-54.7-29.6-76.9-51.9-22.2-22.2-39.7-48.1-51.9-76.9-12.6-29.8-19-61.5-19-94.2s6.4-64.4 19-94.2c12.2-28.8 29.6-54.7 51.9-76.9 22.2-22.2 48.1-39.7 76.9-51.9 29.8-12.6 61.5-19 94.2-19s64.4 6.4 94.2 19c28.8 12.2 54.7 29.6 76.9 51.9 22.2 22.2 39.7 48.1 51.9 76.9 12.6 29.8 19 61.5 19 94.2s-6.4 64.4-19 94.2z m102.1-148.7c-0.4 0.4-1.4 0.6-2.9 0.6-12.2 0-58-13.4-83-49-14-28.8-17.3-36.5-42.2-67.8 5.6-1.8 12.1-2.8 19.2-2.8 16.7 0 37.2 5.6 59.5 19.4 57.6 35.8 54.9 94.1 49.4 99.6z m40.4-319.6c-2.8 28.7-8.9 57.4-15.5 73.2-34.1 81.2-102.2 93.2-147.3 101.1-11.3 2-21 3.7-28.5 6.2-0.8 0.3-1.6 0.7-2.3 1.2-20.5-18.3-43.9-33.4-69.4-44.4 15.6-17.9 43.2-18.3 75-18.6 27.5-0.3 58.8-0.7 87.3-13.2 61.7-27.1 81.5-92.1 93.3-131 2.4-7.8 5.2-17 7.6-22.6 1.3 7.7 2.1 23.6-0.2 48.1z" fill="" p-id="1398"></path></svg>