<?xml version="1.0" standalone="no"?><!DOCTYPE svg PUBLIC "-//W3C//DTD SVG 1.1//EN" "http://www.w3.org/Graphics/SVG/1.1/DTD/svg11.dtd"><svg t="1533267062055" class="icon" style="" viewBox="0 0 1024 1024" version="1.1" xmlns="http://www.w3.org/2000/svg" p-id="6854" xmlns:xlink="http://www.w3.org/1999/xlink" width="32" height="32"><defs><style type="text/css"></style></defs><path d="M970.102 837.617l0 53.895c0 59.284-48.505 107.789-107.789 107.789L107.789 999.301C47.965 999.3 0 950.796 0 891.511l0-754.525C0 77.702 47.966 29.198 107.789 29.198l754.525 0c59.284 0 107.789 48.505 107.789 107.789l0 53.895L485.051 190.882c-59.822 0-107.789 48.505-107.789 107.789l0 431.157c0 59.284 47.966 107.789 107.789 107.789L970.102 837.617zM485.051 729.827l538.946 0L1023.997 298.67 485.051 298.67 485.051 729.827zM700.63 595.091c-44.733 0-80.842-36.109-80.842-80.842s36.109-80.842 80.842-80.842 80.842 36.109 80.842 80.842S745.363 595.091 700.63 595.091z" p-id="6855" fill="#1296db"></path></svg>