<?xml version="1.0" standalone="no"?><!DOCTYPE svg PUBLIC "-//W3C//DTD SVG 1.1//EN" "http://www.w3.org/Graphics/SVG/1.1/DTD/svg11.dtd"><svg t="1533027215068" class="icon" style="" viewBox="0 0 1024 1024" version="1.1" xmlns="http://www.w3.org/2000/svg" p-id="1267" xmlns:xlink="http://www.w3.org/1999/xlink" width="200" height="200"><defs><style type="text/css"></style></defs><path d="M416.3 429.2m-18 0a18 18 0 1 0 36 0 18 18 0 1 0-36 0Z" fill="" p-id="1268"></path><path d="M608.4 429.2m-18 0a18 18 0 1 0 36 0 18 18 0 1 0-36 0Z" fill="" p-id="1269"></path><path d="M779.7 152.8c-4.6-3.8-10.2-5.9-16.4-5.9-10.5 0-22.2 5.8-36.5 18.4-10.3 9-22 21.4-34.8 37-21.6 26.3-45.3 60.5-59 85.1-0.1 0.1-0.1 0.3-0.2 0.4-35.9-19-76.9-29.8-120.4-29.8-43.8 0-85 10.9-121.2 30.2-13.7-24.7-37.3-58.8-58.9-84.9-12.8-15.5-24.5-28-34.8-37-14.4-12.5-26-18.4-36.5-18.4-6.2 0-11.8 2-16.4 5.9-21.9 18.5-31.2 51.1-26.3 92 4 33 17 66.8 33.3 86 12.9 15.3 31 26.2 52.7 31.8-31.3 42.7-49.8 95.4-49.8 152.4 0 142.5 115.5 258 258 258s258-115.5 258-258c0-57.4-18.8-110.5-50.5-153.4 21.7-5.5 39.9-16.4 52.9-31.8 16.3-19.2 29.3-53 33.3-86 4.7-40.9-4.6-73.6-26.5-92zM512.4 274c32.7 0 64.4 6.4 94.2 19 10.7 4.5 20.9 9.7 30.7 15.7-0.2 4.3-1.1 8.4-2.6 12.5-5.9 15.6-21.1 26.1-37.8 26.1h-0.2c-2.8-0.1-5.4 1.4-6.9 3.8-10.1 16.5-30.7 23.5-48.8 16.6-1.9-0.7-3.7-1.6-5.5-2.5-2.4-1.3-5.2-1.4-7.6-0.1-18 9.4-39.2 10.7-58.2 3.5-14-5.3-25.7-14.7-33.9-27.1-1.4-2.2-3.8-3.5-6.4-3.6-34.1-0.9-38.7-23-39.2-30.8 9-5.3 18.4-10 28.1-14.1 29.7-12.6 61.4-19 94.1-19z m-197.2 75.7c-19.4-3.7-38.2-12.6-51.4-28.2-27.8-32.9-48.2-122.3-8.9-155.5 1.7-1.4 3.7-2.1 6.1-2.1 26.7 0 91.9 88 116.4 132.2-25.6 16.4-43.3 32.4-62.2 53.6z m368.3 337.4c-22.2 22.2-48.1 39.7-76.9 51.9-29.8 12.6-61.5 19-94.2 19s-64.4-6.4-94.2-19c-28.8-12.2-54.7-29.6-76.9-51.9-18.5-18.5-33.6-39.5-45.2-62.6 69.5-46.5 138.4-68.2 216.4-68.2 77.9 0 146.8 21.7 216.4 68.2-11.8 23.1-26.9 44.1-45.4 62.6z m70.9-171.1c0 32.5-6.3 64.1-18.9 93.8-71.5-47.4-142.7-69.5-223.1-69.5s-151.6 22.1-223.1 69.5c-12.5-29.7-18.9-61.3-18.9-93.8 0-32.7 6.4-64.4 19-94.2 9.5-22.5 22.2-43.1 37.9-61.7 0-0.1 0.1-0.1 0.1-0.2 5.1-6.1 10.5-11.8 16.1-17.3 0.2-0.2 0.4-0.4 0.6-0.5 1-1 2-1.9 3-2.9 0.2-0.2 0.4-0.4 0.6-0.5 8.7-8.1 17.9-15.4 27.7-22.2 5 21.2 23.4 35.2 49.4 37.2 9.9 13.6 23.4 23.8 39.2 29.8 10 3.8 20.4 5.7 30.9 5.7 12.6 0 25.1-2.7 36.7-8.1 1.2 0.6 2.5 1.1 3.7 1.6 24 9.1 50.9 0.9 65.7-19.6 21.6-1.6 40.9-15.8 48.6-36.3 1-2.8 1.9-5.6 2.5-8.4 11.1 7.9 21.6 16.7 31.3 26.5 22.2 22.2 39.7 48.1 51.9 76.9 12.7 29.8 19.1 61.5 19.1 94.2z m6.1-195.5c-13.2 15.6-32 24.5-51.4 28.2-17.7-21-38.7-39.1-62.2-53.5 24.5-44.2 89.6-132.2 116.4-132.2 2.3 0 4.4 0.7 6.1 2.1 39.4 33.1 18.9 122.5-8.9 155.4z" fill="" p-id="1270"></path></svg>